<svg version="1.1" xmlns="http://www.w3.org/2000/svg" viewBox="0 0 194.25023777947865 275.6712540196266" width="194.25023777947865" height="275.6712540196266" class="excalidraw-svg"><!-- svg-source:excalidraw --><metadata></metadata><defs><style class="style-fonts">
      </style></defs><rect x="0" y="0" width="194.25023777947865" height="275.6712540196266" fill="#ffffff"></rect><g stroke-linecap="round" transform="translate(19.906653593045917 136.05578970763997) rotate(6.8427423859088465 29.944958101139378 23.164945628016568)"><path d="M59.89 23.16 C59.89 24.51, 59.74 25.87, 59.43 27.19 C59.13 28.51, 58.68 29.83, 58.08 31.09 C57.49 32.35, 56.74 33.59, 55.88 34.75 C55.01 35.91, 54 37.03, 52.88 38.06 C51.77 39.08, 50.52 40.05, 49.19 40.91 C47.87 41.77, 46.42 42.56, 44.92 43.23 C43.42 43.9, 41.82 44.47, 40.19 44.93 C38.56 45.39, 36.85 45.75, 35.14 45.98 C33.44 46.21, 31.68 46.33, 29.94 46.33 C28.21 46.33, 26.45 46.21, 24.75 45.98 C23.04 45.75, 21.33 45.39, 19.7 44.93 C18.07 44.47, 16.47 43.9, 14.97 43.23 C13.47 42.56, 12.02 41.77, 10.7 40.91 C9.37 40.05, 8.12 39.08, 7.01 38.06 C5.89 37.03, 4.88 35.91, 4.01 34.75 C3.15 33.59, 2.4 32.35, 1.81 31.09 C1.21 29.83, 0.76 28.51, 0.45 27.19 C0.15 25.87, 0 24.51, 0 23.16 C0 21.82, 0.15 20.46, 0.45 19.14 C0.76 17.82, 1.21 16.5, 1.81 15.24 C2.4 13.98, 3.15 12.74, 4.01 11.58 C4.88 10.42, 5.89 9.3, 7.01 8.27 C8.12 7.25, 9.37 6.28, 10.7 5.42 C12.02 4.56, 13.47 3.77, 14.97 3.1 C16.47 2.43, 18.07 1.86, 19.7 1.4 C21.33 0.94, 23.04 0.58, 24.75 0.35 C26.45 0.12, 28.21 0, 29.94 0 C31.68 0, 33.44 0.12, 35.14 0.35 C36.85 0.58, 38.56 0.94, 40.19 1.4 C41.82 1.86, 43.42 2.43, 44.92 3.1 C46.42 3.77, 47.87 4.56, 49.19 5.42 C50.52 6.28, 51.77 7.25, 52.88 8.27 C54 9.3, 55.01 10.42, 55.88 11.58 C56.74 12.74, 57.49 13.98, 58.08 15.24 C58.68 16.5, 59.13 17.82, 59.43 19.14 C59.74 20.46, 59.81 22.49, 59.89 23.16 C59.97 23.84, 59.97 22.49, 59.89 23.16" stroke="#1e1e1e" stroke-width="2" fill="none"></path></g><g stroke-linecap="round"><g transform="translate(47.8424797987239 186.09467212407714) rotate(6.8427423859088465 1.6950138947792084 23.164967181013537)"><path d="M0 0 C0.57 7.72, 2.83 38.61, 3.39 46.33 M0 0 C0.57 7.72, 2.83 38.61, 3.39 46.33" stroke="#1e1e1e" stroke-width="2" fill="none"></path></g></g><mask></mask><g stroke-linecap="round"><g transform="translate(47.0917146876518 236.14443497659127) rotate(6.8427423859088465 20.904941470308927 12.429979761397874)"><path d="M0 0 C6.97 4.14, 34.84 20.72, 41.81 24.86 M0 0 C6.97 4.14, 34.84 20.72, 41.81 24.86" stroke="#1e1e1e" stroke-width="2" fill="none"></path></g></g><mask></mask><g stroke-linecap="round"><g transform="translate(46.386809879425215 230.98643444270104) rotate(6.8427423859088465 -11.299977682544068 18.079968602669936)"><path d="M0 0 C-3.77 6.03, -18.83 30.13, -22.6 36.16 M0 0 C-3.77 6.03, -18.83 30.13, -22.6 36.16" stroke="#1e1e1e" stroke-width="2" fill="none"></path></g></g><mask></mask><g stroke-linecap="round"><g transform="translate(52.92419410470586 205.25854473774413) rotate(6.8427423859088465 25.424949785724152 -8.47498326190805)"><path d="M0 0 C8.47 -2.82, 42.37 -14.12, 50.85 -16.95 M0 0 C8.47 -2.82, 42.37 -14.12, 50.85 -16.95" stroke="#1e1e1e" stroke-width="2" fill="none"></path></g></g><mask></mask><g stroke-linecap="round"><g transform="translate(9.585848768798513 194.97235442510788) rotate(6.8427423859088465 20.33999431337452 2.2600041577076126)"><path d="M0 0 C6.78 0.75, 33.9 3.77, 40.68 4.52 M0 0 C6.78 0.75, 33.9 3.77, 40.68 4.52" stroke="#1e1e1e" stroke-width="2" fill="none"></path></g></g><mask></mask><g transform="translate(41.830062313770895 151.7862190592112) rotate(0 0.00005000000000165983 0.00005000000000165983)" stroke="none"><path fill="#1e1e1e" d="M 3.14,-3.14 Q 3.14,-3.14 3.55,-2.55 3.97,-1.97 4.18,-1.28 4.40,-0.59 4.38,0.11 4.36,0.83 4.11,1.51 3.86,2.18 3.41,2.74 2.96,3.30 2.36,3.69 1.75,4.07 1.05,4.25 0.36,4.42 -0.35,4.36 -1.07,4.30 -1.73,4.02 -2.39,3.74 -2.92,3.26 -3.46,2.78 -3.81,2.15 -4.16,1.53 -4.30,0.82 -4.43,0.11 -4.34,-0.59 -4.24,-1.30 -3.92,-1.94 -3.60,-2.59 -3.09,-3.09 -2.59,-3.60 -1.94,-3.92 -1.30,-4.24 -0.59,-4.34 0.12,-4.43 0.82,-4.30 1.53,-4.16 2.15,-3.81 2.78,-3.46 3.26,-2.92 3.74,-2.39 4.02,-1.73 4.31,-1.07 4.36,-0.35 4.42,0.36 4.25,1.05 4.07,1.75 3.69,2.36 3.30,2.96 2.74,3.41 2.18,3.86 1.51,4.11 0.83,4.36 0.11,4.38 -0.60,4.40 -1.28,4.18 -1.97,3.97 -2.55,3.55 -3.14,3.13 -3.14,3.14 -3.14,3.14 -3.47,2.71 -3.80,2.29 -4.02,1.80 -4.24,1.32 -4.33,0.79 -4.43,0.26 -4.40,-0.26 -4.36,-0.80 -4.20,-1.31 -4.04,-1.82 -3.77,-2.28 -3.49,-2.73 -3.11,-3.11 -2.73,-3.49 -2.28,-3.77 -1.82,-4.05 -1.31,-4.20 -0.80,-4.36 -0.26,-4.40 0.26,-4.43 0.79,-4.33 1.32,-4.24 1.80,-4.02 2.29,-3.80 2.71,-3.47 3.14,-3.14 3.14,-3.14 L 3.14,-3.14 Z"></path></g><g transform="translate(62.16997041515742 152.91619958506806) rotate(0 0.00005000000000165983 0.00005000000000165983)" stroke="none"><path fill="#1e1e1e" d="M 3.14,-3.14 Q 3.14,-3.14 3.55,-2.55 3.97,-1.97 4.18,-1.28 4.40,-0.59 4.38,0.11 4.36,0.83 4.11,1.51 3.86,2.18 3.41,2.74 2.96,3.30 2.36,3.69 1.75,4.07 1.05,4.25 0.36,4.42 -0.35,4.36 -1.07,4.30 -1.73,4.02 -2.39,3.74 -2.92,3.26 -3.46,2.78 -3.81,2.15 -4.16,1.53 -4.30,0.82 -4.43,0.11 -4.34,-0.59 -4.24,-1.30 -3.92,-1.94 -3.60,-2.59 -3.09,-3.09 -2.59,-3.60 -1.94,-3.92 -1.30,-4.24 -0.59,-4.34 0.12,-4.43 0.82,-4.30 1.53,-4.16 2.15,-3.81 2.78,-3.46 3.26,-2.92 3.74,-2.39 4.02,-1.73 4.31,-1.07 4.36,-0.35 4.42,0.36 4.25,1.05 4.07,1.75 3.69,2.36 3.30,2.96 2.74,3.41 2.18,3.86 1.51,4.11 0.83,4.36 0.11,4.38 -0.60,4.40 -1.28,4.18 -1.97,3.97 -2.55,3.55 -3.14,3.13 -3.14,3.14 -3.14,3.14 -3.47,2.71 -3.80,2.29 -4.02,1.80 -4.24,1.32 -4.33,0.79 -4.43,0.26 -4.40,-0.26 -4.36,-0.80 -4.20,-1.31 -4.04,-1.82 -3.77,-2.28 -3.49,-2.73 -3.11,-3.11 -2.73,-3.49 -2.28,-3.77 -1.82,-4.05 -1.31,-4.20 -0.80,-4.36 -0.26,-4.40 0.26,-4.43 0.79,-4.33 1.32,-4.24 1.80,-4.02 2.29,-3.80 2.71,-3.47 3.14,-3.14 3.14,-3.14 L 3.14,-3.14 Z"></path></g><g stroke-linecap="round"><g transform="translate(41.01865058429871 166.1110586693848) rotate(0 9.743182308997703 1.8593861534116343)"><path d="M0 0 C1.59 0.62, 6.27 3.55, 9.52 3.72 C12.77 3.89, 17.83 1.49, 19.49 1.04 M0 0 C1.59 0.62, 6.27 3.55, 9.52 3.72 C12.77 3.89, 17.83 1.49, 19.49 1.04" stroke="#1e1e1e" stroke-width="0.5" fill="none"></path></g></g><mask></mask><g stroke-linecap="round"><g transform="translate(103.93421687977565 74.686266258361) rotate(39.79352027964301 27.29670082334544 0.6949081763609684)"><path d="M0 0 C-3.05 -7.62, -25.88 -35.67, -18.3 -45.73 C-10.73 -55.79, 30.23 -78.28, 45.43 -60.37 C60.63 -42.45, 68.32 41.4, 72.9 61.76 M0 0 C-3.05 -7.62, -25.88 -35.67, -18.3 -45.73 C-10.73 -55.79, 30.23 -78.28, 45.43 -60.37 C60.63 -42.45, 68.32 41.4, 72.9 61.76" stroke="#1e1e1e" stroke-width="4" fill="none"></path></g></g><mask></mask><g transform="translate(126.26192011858188 171.00393063468357) rotate(39.79352027964301 0.00005000000000165983 0.00005000000000165983)" stroke="none"><path fill="#1e1e1e" d="M 6.28,-6.28 Q 6.28,-6.28 7.11,-5.11 7.95,-3.94 8.37,-2.57 8.80,-1.19 8.76,0.23 8.72,1.67 8.22,3.02 7.73,4.37 6.83,5.49 5.93,6.61 4.72,7.38 3.50,8.15 2.11,8.50 0.72,8.85 -0.71,8.73 -2.14,8.61 -3.46,8.05 -4.78,7.48 -5.85,6.52 -6.92,5.56 -7.63,4.31 -8.33,3.06 -8.60,1.65 -8.87,0.23 -8.68,-1.18 -8.49,-2.60 -7.85,-3.89 -7.21,-5.18 -6.19,-6.19 -5.18,-7.21 -3.89,-7.85 -2.60,-8.49 -1.18,-8.68 0.24,-8.87 1.65,-8.60 3.06,-8.33 4.31,-7.62 5.56,-6.92 6.52,-5.85 7.48,-4.78 8.05,-3.46 8.62,-2.14 8.73,-0.70 8.85,0.72 8.50,2.11 8.15,3.51 7.38,4.72 6.61,5.93 5.48,6.83 4.36,7.73 3.02,8.22 1.67,8.72 0.23,8.76 -1.20,8.80 -2.57,8.37 -3.94,7.95 -5.11,7.11 -6.28,6.27 -6.28,6.27 -6.28,6.28 -6.94,5.43 -7.60,4.59 -8.04,3.61 -8.48,2.64 -8.67,1.58 -8.86,0.53 -8.80,-0.53 -8.73,-1.60 -8.41,-2.62 -8.09,-3.64 -7.54,-4.56 -6.99,-5.47 -6.23,-6.23 -5.47,-6.99 -4.56,-7.54 -3.64,-8.10 -2.62,-8.41 -1.60,-8.73 -0.53,-8.80 0.53,-8.86 1.59,-8.67 2.64,-8.48 3.61,-8.04 4.59,-7.60 5.43,-6.94 6.28,-6.28 6.28,-6.28 L 6.28,-6.28 Z"></path></g></svg>